<svg width="406" height="136" viewBox="0 0 406 136" fill="none" xmlns="http://www.w3.org/2000/svg">
<path d="M29.8 55.8C12.04 55.8 1 44.92 1 28.2C1 11.48 12.04 0.599999 29.8 0.599999C47.96 0.599999 58.92 11.48 58.92 28.2C58.92 44.92 47.96 55.8 29.8 55.8ZM29.8 44.28C41.56 44.28 46.12 40.12 46.12 28.2C46.12 16.28 41.56 12.12 29.8 12.12C18.04 12.12 13.72 16.28 13.72 28.2C13.72 40.12 18.04 44.28 29.8 44.28ZM91.0731 55.8C73.6331 55.8 64.7531 47 64.7531 32.6V1.4H76.7531V31.72C76.7531 40.84 80.1931 44.12 91.0731 44.12C102.033 44.12 105.393 40.84 105.393 31.72V1.4H117.393V32.6C117.393 47 108.593 55.8 91.0731 55.8ZM136.434 55H124.434V1.4H154.034C167.234 1.4 174.754 7.24 174.754 17.48C174.754 26.2 169.714 31.4 159.634 32.36V33C164.434 34.28 166.274 36.84 168.274 40.6L176.034 55H162.114L154.754 41.08C152.594 36.92 150.594 35.56 144.354 35.56H136.434V55ZM136.434 12.2V26.52H153.954C159.634 26.52 162.194 24.92 162.194 19.32C162.194 14.04 159.634 12.2 153.954 12.2H136.434ZM26.52 135.8C10.28 135.8 1.16 129.4 1.16 116.92V116.44H13.16V117.88C13.16 122.84 15.64 124.84 26.52 124.84C36.12 124.84 38.36 123.4 38.36 119.8C38.36 116.52 36.52 115.32 31 114.36L15.96 112.2C6.36 110.68 0.68 105.88 0.68 97.16C0.68 89.08 7.24 80.6 25.24 80.6C41.72 80.6 49.4 88.2 49.4 99.48V99.96H37.32V98.84C37.32 93.72 34.68 91.56 24.04 91.56C15.4 91.56 12.76 93.24 12.76 96.68C12.76 99.8 14.52 100.92 19 101.72L34.04 104.12C46.04 106.04 50.36 111.88 50.36 119.24C50.36 127.96 43.56 135.8 26.52 135.8ZM101.607 135H56.2469V81.4H101.607V92.2H68.2469V102.68H100.407V113.4H68.2469V124.2H101.607V135ZM120.028 135H108.028V81.4H137.628C150.828 81.4 158.348 87.24 158.348 97.48C158.348 106.2 153.308 111.4 143.228 112.36V113C148.028 114.28 149.868 116.84 151.868 120.6L159.628 135H145.708L138.348 121.08C136.188 116.92 134.188 115.56 127.948 115.56H120.028V135ZM120.028 92.2V106.52H137.548C143.228 106.52 145.788 104.92 145.788 99.32C145.788 94.04 143.228 92.2 137.548 92.2H120.028ZM199.939 135H182.819L160.579 81.4H175.059L191.139 122.84H191.939L207.779 81.4H222.179L199.939 135ZM237.731 135H225.731V81.4H237.731V135ZM272.453 135.8C254.773 135.8 243.813 124.92 243.813 108.2C243.813 91.48 254.773 80.6 272.453 80.6C289.093 80.6 299.813 88.92 299.813 102.52V103.72H286.453V102.52C286.453 95.48 282.453 92.12 272.693 92.12C260.933 92.12 256.533 96.28 256.533 108.2C256.533 120.12 260.933 124.28 272.693 124.28C282.453 124.28 286.453 120.92 286.453 113.88V112.68H299.813V113.88C299.813 127.48 289.173 135.8 272.453 135.8ZM351.373 135H306.013V81.4H351.373V92.2H318.013V102.68H350.173V113.4H318.013V124.2H351.373V135ZM382.114 135.8C365.874 135.8 356.754 129.4 356.754 116.92V116.44H368.754V117.88C368.754 122.84 371.234 124.84 382.114 124.84C391.714 124.84 393.954 123.4 393.954 119.8C393.954 116.52 392.114 115.32 386.594 114.36L371.554 112.2C361.954 110.68 356.274 105.88 356.274 97.16C356.274 89.08 362.834 80.6 380.834 80.6C397.314 80.6 404.994 88.2 404.994 99.48V99.96H392.914V98.84C392.914 93.72 390.274 91.56 379.634 91.56C370.994 91.56 368.354 93.24 368.354 96.68C368.354 99.8 370.114 100.92 374.594 101.72L389.634 104.12C401.634 106.04 405.954 111.88 405.954 119.24C405.954 127.96 399.154 135.8 382.114 135.8Z" fill="black"/>
</svg>
